<svg width="39" height="11" viewBox="0 0 39 11" fill="none" xmlns="http://www.w3.org/2000/svg">
<path fill-rule="evenodd" clip-rule="evenodd" d="M6 0H5V2H4V3H3V2V0H2V1H1V0H0V1H1V2H0V3H3V4H2V5H0V6H2V7H3V8H0V9H1V10H0V11H1V10H2V11H3V9V8H4V9H5V11H6V9H7V8H8V9V11H9V10H10V11H11V10H10V9H11V8H8V7H9V6H11V5H9V4H8V3H9H11V2H10V1H11V0H10V1H9V0H8V3H7V2H6V0ZM8 5H7V4H6V3H5V4H4V5H3V6H4V7H5V8H6V7H7V6H8V5Z" fill="url(#paint0_linear_308_2)"/>
<path d="M13.98 9V2H14.86L17.96 6.98C18.01 7.06333 18.0583 7.14667 18.105 7.23C18.1517 7.31333 18.2 7.40333 18.25 7.5C18.2467 7.41333 18.2417 7.32667 18.235 7.24C18.2317 7.15333 18.23 7.07 18.23 6.99V2H19.1V9H18.26L15.11 4C15.0667 3.92333 15.02 3.84333 14.97 3.76C14.9233 3.67667 14.8767 3.59333 14.83 3.51C14.8367 3.58333 14.8417 3.66333 14.845 3.75C14.8483 3.83667 14.85 3.92 14.85 4V9H13.98ZM20.9201 9V3.89H21.7901V9H20.9201ZM21.3501 2.96C21.2001 2.96 21.0717 2.90833 20.9651 2.805C20.8617 2.69833 20.8101 2.57 20.8101 2.42C20.8101 2.26333 20.8617 2.13167 20.9651 2.025C21.0717 1.915 21.2001 1.86 21.3501 1.86C21.5067 1.86 21.6367 1.915 21.7401 2.025C21.8467 2.13167 21.9001 2.26333 21.9001 2.42C21.9001 2.57 21.8467 2.69833 21.7401 2.805C21.6367 2.90833 21.5067 2.96 21.3501 2.96ZM22.9991 9L24.7091 6.34L23.1291 3.89H24.0991L24.9091 5.13C24.9658 5.21333 25.0175 5.29667 25.0641 5.38C25.1141 5.46333 25.1591 5.54333 25.1991 5.62C25.2458 5.54 25.2941 5.46 25.3441 5.38C25.3941 5.29667 25.4458 5.21333 25.4991 5.13L26.2991 3.89H27.2791L25.6891 6.34L27.4091 9H26.4291L25.4891 7.55C25.4358 7.46333 25.3858 7.38 25.3391 7.3C25.2925 7.22 25.2458 7.14 25.1991 7.06C25.1591 7.14 25.1141 7.22 25.0641 7.3C25.0175 7.38 24.9658 7.46333 24.9091 7.55L23.9691 9H22.9991ZM30.2824 9.12C29.8158 9.12 29.4124 9.005 29.0724 8.775C28.7324 8.545 28.4708 8.22833 28.2874 7.825C28.1041 7.42167 28.0124 6.96 28.0124 6.44C28.0124 5.87667 28.1074 5.39667 28.2974 5C28.4874 4.6 28.7524 4.295 29.0924 4.085C29.4324 3.875 29.8291 3.77 30.2824 3.77C30.6658 3.77 31.0174 3.85667 31.3374 4.03C31.6574 4.2 31.9124 4.465 32.1024 4.825C32.2958 5.18167 32.3924 5.64 32.3924 6.2C32.3924 6.28 32.3891 6.37333 32.3824 6.48C32.3791 6.58333 32.3724 6.69 32.3624 6.8H28.9024C28.9358 7.11 29.0124 7.38167 29.1324 7.615C29.2524 7.84833 29.4108 8.03167 29.6074 8.165C29.8041 8.295 30.0358 8.36 30.3024 8.36C30.5191 8.36 30.7191 8.32167 30.9024 8.245C31.0891 8.16833 31.2624 8.05 31.4224 7.89L31.9324 8.46C31.7424 8.65 31.5058 8.80833 31.2224 8.935C30.9424 9.05833 30.6291 9.12 30.2824 9.12ZM28.8924 6.04H31.5124C31.5124 5.75 31.4641 5.49167 31.3674 5.265C31.2741 5.035 31.1358 4.855 30.9524 4.725C30.7691 4.595 30.5458 4.53 30.2824 4.53C29.9124 4.53 29.5941 4.65 29.3274 4.89C29.0641 5.13 28.9191 5.51333 28.8924 6.04ZM35.6791 9.12C35.0291 9.12 34.5141 8.88 34.1341 8.4C33.7574 7.91667 33.5691 7.26333 33.5691 6.44C33.5691 5.89333 33.6541 5.42 33.8241 5.02C33.9974 4.62 34.2407 4.31167 34.5541 4.095C34.8707 3.87833 35.2457 3.77 35.6791 3.77C36.1791 3.77 36.6091 3.93 36.9691 4.25V2.19L37.8391 1.78V9H36.9691V8.6C36.6324 8.94667 36.2024 9.12 35.6791 9.12ZM35.7991 8.31C36.0391 8.31 36.2607 8.25 36.4641 8.13C36.6707 8.01 36.8391 7.84 36.9691 7.62V5.22C36.8391 5.02 36.6707 4.86167 36.4641 4.745C36.2574 4.62833 36.0357 4.57 35.7991 4.57C35.3691 4.57 35.0357 4.73167 34.7991 5.055C34.5657 5.37833 34.4491 5.84 34.4491 6.44C34.4491 6.81 34.5057 7.135 34.6191 7.415C34.7324 7.695 34.8907 7.915 35.0941 8.075C35.2974 8.23167 35.5324 8.31 35.7991 8.31Z" fill="black"/>
<defs>
<linearGradient id="paint0_linear_308_2" x1="9.31804e-07" y1="11.5" x2="11" y2="-3.61702e-07" gradientUnits="userSpaceOnUse">
<stop stop-color="#7EB8E2"/>
<stop offset="1" stop-color="#4F73BC"/>
</linearGradient>
</defs>
</svg>
