<svg width="25" height="9" viewBox="0 0 25 9" fill="none" xmlns="http://www.w3.org/2000/svg">
<path d="M0.98 8V1H1.86L4.96 5.98C5.01 6.06333 5.05833 6.14667 5.105 6.23C5.15167 6.31333 5.2 6.40333 5.25 6.5C5.24667 6.41333 5.24167 6.32667 5.235 6.24C5.23167 6.15333 5.23 6.07 5.23 5.99V1H6.1V8H5.26L2.11 3C2.06667 2.92333 2.02 2.84333 1.97 2.76C1.92333 2.67667 1.87667 2.59333 1.83 2.51C1.83667 2.58333 1.84167 2.66333 1.845 2.75C1.84833 2.83667 1.85 2.92 1.85 3V8H0.98ZM7.92008 8V2.89H8.79008V8H7.92008ZM8.35008 1.96C8.20008 1.96 8.07174 1.90833 7.96508 1.805C7.86174 1.69833 7.81008 1.57 7.81008 1.42C7.81008 1.26333 7.86174 1.13167 7.96508 1.025C8.07174 0.915 8.20008 0.86 8.35008 0.86C8.50674 0.86 8.63674 0.915 8.74008 1.025C8.84674 1.13167 8.90008 1.26333 8.90008 1.42C8.90008 1.57 8.84674 1.69833 8.74008 1.805C8.63674 1.90833 8.50674 1.96 8.35008 1.96ZM9.99914 8L11.7091 5.34L10.1291 2.89H11.0991L11.9091 4.13C11.9658 4.21333 12.0175 4.29667 12.0641 4.38C12.1141 4.46333 12.1591 4.54333 12.1991 4.62C12.2458 4.54 12.2941 4.46 12.3441 4.38C12.3941 4.29667 12.4458 4.21333 12.4991 4.13L13.2991 2.89H14.2791L12.6891 5.34L14.4091 8H13.4291L12.4891 6.55C12.4358 6.46333 12.3858 6.38 12.3391 6.3C12.2925 6.22 12.2458 6.14 12.1991 6.06C12.1591 6.14 12.1141 6.22 12.0641 6.3C12.0175 6.38 11.9658 6.46333 11.9091 6.55L10.9691 8H9.99914ZM17.2824 8.12C16.8158 8.12 16.4124 8.005 16.0724 7.775C15.7324 7.545 15.4708 7.22833 15.2874 6.825C15.1041 6.42167 15.0124 5.96 15.0124 5.44C15.0124 4.87667 15.1074 4.39667 15.2974 4C15.4874 3.6 15.7524 3.295 16.0924 3.085C16.4324 2.875 16.8291 2.77 17.2824 2.77C17.6658 2.77 18.0174 2.85667 18.3374 3.03C18.6574 3.2 18.9124 3.465 19.1024 3.825C19.2958 4.18167 19.3924 4.64 19.3924 5.2C19.3924 5.28 19.3891 5.37333 19.3824 5.48C19.3791 5.58333 19.3724 5.69 19.3624 5.8H15.9024C15.9358 6.11 16.0124 6.38167 16.1324 6.615C16.2524 6.84833 16.4108 7.03167 16.6074 7.165C16.8041 7.295 17.0358 7.36 17.3024 7.36C17.5191 7.36 17.7191 7.32167 17.9024 7.245C18.0891 7.16833 18.2624 7.05 18.4224 6.89L18.9324 7.46C18.7424 7.65 18.5058 7.80833 18.2224 7.935C17.9424 8.05833 17.6291 8.12 17.2824 8.12ZM15.8924 5.04H18.5124C18.5124 4.75 18.4641 4.49167 18.3674 4.265C18.2741 4.035 18.1358 3.855 17.9524 3.725C17.7691 3.595 17.5458 3.53 17.2824 3.53C16.9124 3.53 16.5941 3.65 16.3274 3.89C16.0641 4.13 15.9191 4.51333 15.8924 5.04ZM22.6791 8.12C22.0291 8.12 21.5141 7.88 21.1341 7.4C20.7574 6.91667 20.5691 6.26333 20.5691 5.44C20.5691 4.89333 20.6541 4.42 20.8241 4.02C20.9974 3.62 21.2407 3.31167 21.5541 3.095C21.8707 2.87833 22.2457 2.77 22.6791 2.77C23.1791 2.77 23.6091 2.93 23.9691 3.25V1.19L24.8391 0.779999V8H23.9691V7.6C23.6324 7.94667 23.2024 8.12 22.6791 8.12ZM22.7991 7.31C23.0391 7.31 23.2607 7.25 23.4641 7.13C23.6707 7.01 23.8391 6.84 23.9691 6.62V4.22C23.8391 4.02 23.6707 3.86167 23.4641 3.745C23.2574 3.62833 23.0357 3.57 22.7991 3.57C22.3691 3.57 22.0357 3.73167 21.7991 4.055C21.5657 4.37833 21.4491 4.84 21.4491 5.44C21.4491 5.81 21.5057 6.135 21.6191 6.415C21.7324 6.695 21.8907 6.915 22.0941 7.075C22.2974 7.23167 22.5324 7.31 22.7991 7.31Z" fill="black"/>
</svg>
