<svg width="62" height="11" viewBox="0 0 62 11" fill="none" xmlns="http://www.w3.org/2000/svg">
<style>
	@media (prefers-color-scheme: dark) {
		.text {
			fill: white;
		}
	}
</style>
<path fill-rule="evenodd" clip-rule="evenodd" d="M5.50038 0H4.58366V2H3.66693V3H2.7502V5H3.66693V4H4.58366V3H5.50038V4H6.41709V5H7.3338V6H6.41709V7H5.50038V8H4.58366V7H3.66693V6H2.7502V8H3.66693V9H4.58366V11H5.50038V9H6.41709V8H7.33377V9H7.33375V11H8.25047V9H8.25048V10H9.1672V9H10.0839V8H7.3338V7H8.25046V4H7.3338V3H8.25046V0H7.33374V3H6.41709V2H5.50038V0ZM2.75019 4H1.83347V7H2.75019V4ZM8.25047 6V5H10.0839V6H8.25047ZM0 5H1.83344V6H0V5ZM9.16719 1H8.25047V2V3H10.0839V2H9.16719V1ZM9.1672 0H10.0839V1H9.1672V0ZM0.916733 1V2H0V3H2.75016V2H2.75019V0H1.83347V2H1.83345V1H0.916733ZM0 1V0H0.916721V1H0ZM0.916733 10V9H0V8H2.75016V9H2.75019V11H1.83347V9H1.83345V10H0.916733ZM0 10V11H0.916721V10H0ZM10.0839 10V11H9.16722V10H10.0839Z" fill="url(#paint0_linear_311_3)"/>
<path d="M12.7896 9V2H13.6696L16.7696 6.98C16.8196 7.06333 16.8679 7.14667 16.9146 7.23C16.9612 7.31333 17.0096 7.40333 17.0596 7.5C17.0562 7.41333 17.0512 7.32667 17.0446 7.24C17.0412 7.15333 17.0396 7.07 17.0396 6.99V2H17.9096V9H17.0696L13.9196 4C13.8762 3.92333 13.8296 3.84333 13.7796 3.76C13.7329 3.67667 13.6862 3.59333 13.6396 3.51C13.6462 3.58333 13.6512 3.66333 13.6546 3.75C13.6579 3.83667 13.6596 3.92 13.6596 4V9H12.7896ZM19.7296 9V3.89H20.5996V9H19.7296ZM20.1596 2.96C20.0096 2.96 19.8813 2.90833 19.7746 2.805C19.6713 2.69833 19.6196 2.57 19.6196 2.42C19.6196 2.26333 19.6713 2.13167 19.7746 2.025C19.8813 1.915 20.0096 1.86 20.1596 1.86C20.3163 1.86 20.4463 1.915 20.5496 2.025C20.6563 2.13167 20.7096 2.26333 20.7096 2.42C20.7096 2.57 20.6563 2.69833 20.5496 2.805C20.4463 2.90833 20.3163 2.96 20.1596 2.96ZM21.8087 9L23.5187 6.34L21.9387 3.89H22.9087L23.7187 5.13C23.7754 5.21333 23.827 5.29667 23.8737 5.38C23.9237 5.46333 23.9687 5.54333 24.0087 5.62C24.0554 5.54 24.1037 5.46 24.1537 5.38C24.2037 5.29667 24.2554 5.21333 24.3087 5.13L25.1087 3.89H26.0887L24.4987 6.34L26.2187 9H25.2387L24.2987 7.55C24.2454 7.46333 24.1954 7.38 24.1487 7.3C24.102 7.22 24.0554 7.14 24.0087 7.06C23.9687 7.14 23.9237 7.22 23.8737 7.3C23.827 7.38 23.7754 7.46333 23.7187 7.55L22.7787 9H21.8087ZM29.092 9.12C28.6253 9.12 28.222 9.005 27.882 8.775C27.542 8.545 27.2803 8.22833 27.097 7.825C26.9137 7.42167 26.822 6.96 26.822 6.44C26.822 5.87667 26.917 5.39667 27.107 5C27.297 4.6 27.562 4.295 27.902 4.085C28.242 3.875 28.6387 3.77 29.092 3.77C29.4753 3.77 29.827 3.85667 30.147 4.03C30.467 4.2 30.722 4.465 30.912 4.825C31.1053 5.18167 31.202 5.64 31.202 6.2C31.202 6.28 31.1987 6.37333 31.192 6.48C31.1887 6.58333 31.182 6.69 31.172 6.8H27.712C27.7453 7.11 27.822 7.38167 27.942 7.615C28.062 7.84833 28.2203 8.03167 28.417 8.165C28.6137 8.295 28.8453 8.36 29.112 8.36C29.3287 8.36 29.5287 8.32167 29.712 8.245C29.8987 8.16833 30.072 8.05 30.232 7.89L30.742 8.46C30.552 8.65 30.3153 8.80833 30.032 8.935C29.752 9.05833 29.4387 9.12 29.092 9.12ZM27.702 6.04H30.322C30.322 5.75 30.2737 5.49167 30.177 5.265C30.0837 5.035 29.9453 4.855 29.762 4.725C29.5787 4.595 29.3553 4.53 29.092 4.53C28.722 4.53 28.4037 4.65 28.137 4.89C27.8737 5.13 27.7287 5.51333 27.702 6.04ZM34.4886 9.12C33.8386 9.12 33.3236 8.88 32.9436 8.4C32.567 7.91667 32.3786 7.26333 32.3786 6.44C32.3786 5.89333 32.4636 5.42 32.6336 5.02C32.807 4.62 33.0503 4.31167 33.3636 4.095C33.6803 3.87833 34.0553 3.77 34.4886 3.77C34.9886 3.77 35.4186 3.93 35.7786 4.25V2.19L36.6486 1.78V9H35.7786V8.6C35.442 8.94667 35.012 9.12 34.4886 9.12ZM34.6086 8.31C34.8486 8.31 35.0703 8.25 35.2736 8.13C35.4803 8.01 35.6486 7.84 35.7786 7.62V5.22C35.6486 5.02 35.4803 4.86167 35.2736 4.745C35.067 4.62833 34.8453 4.57 34.6086 4.57C34.1786 4.57 33.8453 4.73167 33.6086 5.055C33.3753 5.37833 33.2586 5.84 33.2586 6.44C33.2586 6.81 33.3153 7.135 33.4286 7.415C33.542 7.695 33.7003 7.915 33.9036 8.075C34.107 8.23167 34.342 8.31 34.6086 8.31ZM40.7974 9V2H42.7074C43.3074 2 43.814 2.1 44.2274 2.3C44.644 2.5 44.979 2.76833 45.2324 3.105C45.4857 3.43833 45.669 3.81333 45.7824 4.23C45.899 4.64333 45.9574 5.06667 45.9574 5.5C45.9574 5.90333 45.904 6.31 45.7974 6.72C45.6907 7.13 45.5124 7.50833 45.2624 7.855C45.0157 8.19833 44.6807 8.475 44.2574 8.685C43.834 8.895 43.304 9 42.6674 9H40.7974ZM41.6674 8.19H42.7774C43.214 8.19 43.5774 8.11167 43.8674 7.955C44.1607 7.795 44.394 7.585 44.5674 7.325C44.744 7.06167 44.869 6.77167 44.9424 6.455C45.019 6.135 45.0574 5.81667 45.0574 5.5C45.0574 5.16 45.0157 4.83 44.9324 4.51C44.8524 4.18667 44.724 3.89667 44.5474 3.64C44.374 3.38333 44.1507 3.18 43.8774 3.03C43.604 2.87667 43.274 2.8 42.8874 2.8H41.6674V8.19ZM49.3261 9.12C48.6261 9.12 48.0745 8.88167 47.6711 8.405C47.2678 7.925 47.0661 7.27333 47.0661 6.45C47.0661 5.9 47.1578 5.425 47.3411 5.025C47.5245 4.625 47.7845 4.31667 48.1211 4.1C48.4611 3.88 48.8628 3.77 49.3261 3.77C49.7928 3.77 50.1945 3.87833 50.5311 4.095C50.8711 4.30833 51.1311 4.615 51.3111 5.015C51.4945 5.415 51.5861 5.89 51.5861 6.44C51.5861 6.99 51.4945 7.46667 51.3111 7.87C51.1278 8.27 50.8661 8.57833 50.5261 8.795C50.1895 9.01167 49.7895 9.12 49.3261 9.12ZM49.3261 8.31C49.7561 8.31 50.0928 8.145 50.3361 7.815C50.5828 7.48167 50.7061 7.02333 50.7061 6.44C50.7061 5.85333 50.5828 5.395 50.3361 5.065C50.0928 4.735 49.7561 4.57 49.3261 4.57C48.8928 4.57 48.5545 4.735 48.3111 5.065C48.0678 5.39167 47.9461 5.85333 47.9461 6.45C47.9461 7.03333 48.0678 7.49 48.3111 7.82C48.5545 8.14667 48.8928 8.31 49.3261 8.31ZM54.9186 9.12C54.4786 9.12 54.1002 9.01333 53.7836 8.8C53.4669 8.58333 53.2236 8.27667 53.0536 7.88C52.8836 7.48 52.7986 7.00333 52.7986 6.45C52.7986 5.89333 52.8852 5.415 53.0586 5.015C53.2319 4.615 53.4786 4.30833 53.7986 4.095C54.1219 3.87833 54.5086 3.77 54.9586 3.77C55.3986 3.77 55.7719 3.87167 56.0786 4.075C56.3852 4.27833 56.6086 4.57333 56.7486 4.96L55.9286 5.26C55.8452 5.04 55.7202 4.87167 55.5536 4.755C55.3902 4.63833 55.1952 4.58 54.9686 4.58C54.5552 4.58 54.2386 4.74 54.0186 5.06C53.7986 5.38 53.6886 5.84333 53.6886 6.45C53.6886 7.04333 53.7969 7.5 54.0136 7.82C54.2302 8.14 54.5386 8.3 54.9386 8.3C55.1952 8.3 55.4136 8.23333 55.5936 8.1C55.7769 7.96667 55.9052 7.78 55.9786 7.54L56.7886 7.81C56.6652 8.23 56.4402 8.55333 56.1136 8.78C55.7869 9.00667 55.3886 9.12 54.9186 9.12ZM59.5109 9.12C59.1509 9.12 58.8042 9.04333 58.4709 8.89C58.1409 8.73333 57.8709 8.52333 57.6609 8.26L58.2809 7.73C58.4609 7.92333 58.6609 8.07333 58.8809 8.18C59.1009 8.28667 59.3176 8.34 59.5309 8.34C59.8309 8.34 60.0642 8.28333 60.2309 8.17C60.3976 8.05333 60.4809 7.89333 60.4809 7.69C60.4809 7.55667 60.4426 7.43667 60.3659 7.33C60.2926 7.22333 60.1692 7.12167 59.9959 7.025C59.8259 6.92833 59.5976 6.82667 59.3109 6.72C58.7476 6.51 58.3426 6.28167 58.0959 6.035C57.8526 5.78833 57.7309 5.48333 57.7309 5.12C57.7309 4.72 57.8892 4.395 58.2059 4.145C58.5259 3.895 58.9409 3.77 59.4509 3.77C59.8009 3.77 60.1226 3.83667 60.4159 3.97C60.7092 4.1 60.9609 4.29 61.1709 4.54L60.5709 5.04C60.2642 4.71333 59.8876 4.55 59.4409 4.55C59.1776 4.55 58.9692 4.60167 58.8159 4.705C58.6659 4.805 58.5909 4.94333 58.5909 5.12C58.5909 5.29 58.6759 5.44 58.8459 5.57C59.0192 5.69667 59.3309 5.84333 59.7809 6.01C60.1476 6.14333 60.4442 6.28833 60.6709 6.445C60.9009 6.60167 61.0676 6.78 61.1709 6.98C61.2776 7.18 61.3309 7.41 61.3309 7.67C61.3309 8.12 61.1692 8.475 60.8459 8.735C60.5226 8.99167 60.0776 9.12 59.5109 9.12Z" fill="black" class="text"/>
<defs>
<linearGradient id="paint0_linear_311_3" x1="8.54204e-07" y1="11.5" x2="11.0009" y2="0.956814" gradientUnits="userSpaceOnUse">
<stop stop-color="#7EB8E2"/>
<stop offset="1" stop-color="#4F73BC"/>
</linearGradient>
</defs>
</svg>
